
<svg xmlns="http://www.w3.org/2000/svg" version="1.1" width="600px" height="1300px" style="shape-rendering:geometricPrecision; text-rendering:geometricPrecision; image-rendering:optimizeQuality; fill-rule:evenodd; clip-rule:evenodd" xmlns:xlink="http://www.w3.org/1999/xlink">
<g><path style="opacity:1" fill="#6475ff" d="M 468.5,938.5 C 467.502,962.994 467.169,987.661 467.5,1012.5C 456.833,1012.5 446.167,1012.5 435.5,1012.5C 435.5,932.167 435.5,851.833 435.5,771.5C 435.667,573.5 435.5,375.5 435,177.5C 401.584,156.541 368.084,135.708 334.5,115C 327.833,111.667 321.167,108.333 314.5,105C 304.182,100.387 293.848,100.387 283.5,105C 242.185,125.646 203.185,149.813 166.5,177.5C 165.5,455.833 165.167,734.166 165.5,1012.5C 154.5,1012.5 143.5,1012.5 132.5,1012.5C 132.5,906.167 132.5,799.833 132.5,693.5C 132.333,510.5 132.5,327.5 133,144.5C 177.545,114.301 224.378,87.8012 273.5,65C 282.323,61.3357 291.49,59.169 301,58.5C 305.662,58.4572 310.162,59.2906 314.5,61C 326.075,65.787 337.408,71.1204 348.5,77C 388.5,99.3333 428.5,121.667 468.5,144C 469.604,408.765 469.604,673.598 468.5,938.5 Z"/></g>
<g><path style="opacity:1" fill="#fefefe" d="M 435.5,771.5 C 434.501,851.665 434.167,931.998 434.5,1012.5C 344.833,1012.5 255.167,1012.5 165.5,1012.5C 165.167,734.166 165.5,455.833 166.5,177.5C 203.185,149.813 242.185,125.646 283.5,105C 293.848,100.387 304.182,100.387 314.5,105C 321.167,108.333 327.833,111.667 334.5,115C 368.084,135.708 401.584,156.541 435,177.5C 435.5,375.5 435.667,573.5 435.5,771.5 Z"/></g>
<g><path style="opacity:1" fill="#03cef8" d="M 294.5,352.5 C 293.501,398.664 293.168,444.997 293.5,491.5C 259.167,491.5 224.833,491.5 190.5,491.5C 190.5,410.167 190.5,328.833 190.5,247.5C 225.167,247.5 259.833,247.5 294.5,247.5C 294.5,282.5 294.5,317.5 294.5,352.5 Z"/></g>
<g><path style="opacity:1" fill="#ee5a77" d="M 294.5,352.5 C 333.5,352.5 372.5,352.5 411.5,352.5C 411.5,472.5 411.5,592.5 411.5,712.5C 372.167,712.5 332.833,712.5 293.5,712.5C 293.5,702.5 293.5,692.5 293.5,682.5C 293.5,618.833 293.5,555.167 293.5,491.5C 293.168,444.997 293.501,398.664 294.5,352.5 Z"/></g>
<g><path style="opacity:1" fill="#2dcc8c" d="M 190.5,491.5 C 224.833,491.5 259.167,491.5 293.5,491.5C 293.5,555.167 293.5,618.833 293.5,682.5C 292.501,722.663 292.168,762.997 292.5,803.5C 285.167,803.5 277.833,803.5 270.5,803.5C 243.833,803.5 217.167,803.5 190.5,803.5C 190.5,699.5 190.5,595.5 190.5,491.5 Z"/></g>
<g><path style="opacity:1" fill="#a9eacf" d="M 190.5,491.5 C 190.5,595.5 190.5,699.5 190.5,803.5C 217.167,803.5 243.833,803.5 270.5,803.5C 270.5,803.833 270.5,804.167 270.5,804.5C 243.5,804.5 216.5,804.5 189.5,804.5C 189.167,699.999 189.501,595.665 190.5,491.5 Z"/></g>
<g><path style="opacity:1" fill="#5cd7a5" d="M 293.5,682.5 C 293.5,692.5 293.5,702.5 293.5,712.5C 293.5,743.167 293.5,773.833 293.5,804.5C 285.833,804.5 278.167,804.5 270.5,804.5C 270.5,804.167 270.5,803.833 270.5,803.5C 277.833,803.5 285.167,803.5 292.5,803.5C 292.168,762.997 292.501,722.663 293.5,682.5 Z"/></g>
<g><path style="opacity:1" fill="#919cfa" d="M 468.5,938.5 C 468.5,963.5 468.5,988.5 468.5,1013.5C 457.321,1013.83 446.321,1013.49 435.5,1012.5C 446.167,1012.5 456.833,1012.5 467.5,1012.5C 467.169,987.661 467.502,962.994 468.5,938.5 Z"/></g>
<g><path style="opacity:1" fill="#d7d7da" d="M 132.5,693.5 C 132.5,799.833 132.5,906.167 132.5,1012.5C 143.5,1012.5 154.5,1012.5 165.5,1012.5C 255.167,1012.5 344.833,1012.5 434.5,1012.5C 434.167,931.998 434.501,851.665 435.5,771.5C 435.5,851.833 435.5,932.167 435.5,1012.5C 446.321,1013.49 457.321,1013.83 468.5,1013.5C 496.835,1013.33 525.169,1013.5 553.5,1014C 552.504,1048.09 552.171,1082.26 552.5,1116.5C 524.5,1116.5 496.5,1116.5 468.5,1116.5C 468.831,1138.34 468.497,1160.01 467.5,1181.5C 467.5,1159.83 467.5,1138.17 467.5,1116.5C 460.833,1116.5 454.167,1116.5 447.5,1116.5C 447.5,1140.83 447.5,1165.17 447.5,1189.5C 348.836,1188.62 250.17,1188.29 151.5,1188.5C 151.5,1164.5 151.5,1140.5 151.5,1116.5C 144.833,1116.5 138.167,1116.5 131.5,1116.5C 103.259,1116.83 75.0927,1116.5 47,1115.5C 46.2985,1081.16 46.4652,1046.83 47.5,1012.5C 75.5,1012.5 103.5,1012.5 131.5,1012.5C 131.167,905.999 131.501,799.665 132.5,693.5 Z"/></g>
<g><path style="opacity:1" fill="#6475fe" d="M 131.5,1116.5 C 138.167,1116.5 144.833,1116.5 151.5,1116.5C 151.5,1140.5 151.5,1164.5 151.5,1188.5C 250.17,1188.29 348.836,1188.62 447.5,1189.5C 447.5,1165.17 447.5,1140.83 447.5,1116.5C 454.167,1116.5 460.833,1116.5 467.5,1116.5C 467.5,1138.17 467.5,1159.83 467.5,1181.5C 457.822,1202.02 444.822,1220.18 428.5,1236C 425.618,1237.61 422.618,1238.94 419.5,1240C 338.168,1239.98 256.834,1239.65 175.5,1239C 167.756,1234.59 161.256,1228.76 156,1221.5C 146.994,1208.83 138.994,1195.5 132,1181.5C 131.5,1159.84 131.333,1138.17 131.5,1116.5 Z"/></g>
</svg>
